<?xml version="1.0" encoding="UTF-8" standalone="no"?>
<!-- Created with Inkscape (http://www.inkscape.org/) -->

<svg
   width="210mm"
   height="297mm"
   viewBox="0 0 210 297"
   version="1.1"
   id="svg1"
   inkscape:version="1.3 (0e150ed, 2023-07-21)"
   sodipodi:docname="cartoon.svg"
   xmlns:inkscape="http://www.inkscape.org/namespaces/inkscape"
   xmlns:sodipodi="http://sodipodi.sourceforge.net/DTD/sodipodi-0.dtd"
   xmlns="http://www.w3.org/2000/svg"
   xmlns:svg="http://www.w3.org/2000/svg">
  <sodipodi:namedview
     id="namedview1"
     pagecolor="#ffffff"
     bordercolor="#000000"
     borderopacity="0.25"
     inkscape:showpageshadow="2"
     inkscape:pageopacity="0.0"
     inkscape:pagecheckerboard="0"
     inkscape:deskcolor="#d1d1d1"
     inkscape:document-units="mm"
     inkscape:zoom="0.31540347"
     inkscape:cx="137.91858"
     inkscape:cy="505.70147"
     inkscape:window-width="1440"
     inkscape:window-height="800"
     inkscape:window-x="0"
     inkscape:window-y="23"
     inkscape:window-maximized="1"
     inkscape:current-layer="layer1" />
  <defs
     id="defs1">
    <inkscape:path-effect
       effect="spiro"
       id="path-effect20"
       is_visible="true"
       lpeversion="1" />
    <inkscape:path-effect
       effect="spiro"
       id="path-effect18"
       is_visible="true"
       lpeversion="1" />
    <inkscape:path-effect
       effect="spiro"
       id="path-effect16"
       is_visible="true"
       lpeversion="1" />
    <inkscape:path-effect
       effect="spiro"
       id="path-effect14"
       is_visible="true"
       lpeversion="1" />
    <inkscape:path-effect
       effect="spiro"
       id="path-effect12"
       is_visible="true"
       lpeversion="1" />
    <inkscape:path-effect
       effect="spiro"
       id="path-effect10"
       is_visible="true"
       lpeversion="1" />
    <inkscape:path-effect
       effect="spiro"
       id="path-effect9"
       is_visible="true"
       lpeversion="1" />
    <inkscape:path-effect
       effect="spiro"
       id="path-effect7"
       is_visible="true"
       lpeversion="1" />
    <inkscape:path-effect
       effect="spiro"
       id="path-effect5"
       is_visible="true"
       lpeversion="1" />
    <inkscape:path-effect
       effect="bspline"
       id="path-effect4"
       is_visible="true"
       lpeversion="1.3"
       weight="33.333333"
       steps="2"
       helper_size="0"
       apply_no_weight="true"
       apply_with_weight="true"
       only_selected="false"
       uniform="false" />
    <inkscape:path-effect
       effect="spiro"
       id="path-effect1"
       is_visible="true"
       lpeversion="1" />
  </defs>
  <g
     inkscape:label="Layer 1"
     inkscape:groupmode="layer"
     id="layer1">
    <g
       id="g26"
       transform="matrix(0.85851354,0,0,0.97825639,25.713327,-7.5572493)"
       style="stroke-width:1.09119">
      <g
         id="g25"
         transform="matrix(0.58928759,0,0,0.60469453,185.99493,128.40191)"
         style="stroke-width:1.82797">
        <path
           style="opacity:1;fill:#007400;fill-opacity:1;stroke:none;stroke-width:10.9679;stroke-opacity:1"
           d="m -357.24596,-184.90012 c 0,0 118.56705,5.07009 98.62475,108.709109 -20.08554,104.383401 -116.51183,-141.430479 -98.62475,-108.709109 z"
           id="path22"
           sodipodi:nodetypes="csc" />
        <path
           style="opacity:1;fill:#000000;fill-opacity:1;stroke:none;stroke-width:10.9679;stroke-opacity:1"
           d="M -385.18869,-111.18849 Z"
           id="path23" />
        <path
           style="opacity:1;fill:#007400;fill-opacity:1;stroke:none;stroke-width:10.9679;stroke-opacity:1"
           d="m -275.9857,-56.587 35.73915,92.326158 9.92753,-5.956527 -39.71017,-90.340648 z"
           id="path24" />
        <path
           style="opacity:0.111111;fill:#215321;fill-opacity:1;stroke:none;stroke-width:10.9679;stroke-opacity:1"
           d="m -240.20264,35.618031 c 0,0 3.91747,-5.412291 9.74212,-5.824657"
           id="path25"
           sodipodi:nodetypes="cc" />
      </g>
      <path
         style="fill:#441f16;fill-opacity:1;stroke-width:8.45524"
         d="m 20.135593,112.00424 c 1.704849,-8.73414 7.211055,-16.59407 14.658847,-21.464602 7.447792,-4.870532 16.71755,-6.767773 25.533182,-5.552729 8.815631,1.215045 17.130375,5.471752 23.517031,11.668712 6.386656,6.196959 10.857361,14.276849 13.057888,22.899459 2.307274,9.04088 2.158692,18.58094 0.610412,27.78224 -1.548281,9.2013 -4.462875,18.11567 -7.649958,26.88514 -6.374164,17.53894 -13.988578,35.19338 -14.142881,53.85405 -0.122919,14.86526 4.718493,29.74796 13.662494,41.62214 8.944,11.87417 21.951932,20.6522 36.341592,24.3843 14.38967,3.73211 30.06666,2.3701 43.54597,-3.89881 13.47932,-6.26891 24.64694,-17.41823 30.82729,-30.93838 8.28594,-18.12634 7.22428,-40.06346 -2.06769,-57.69526 -9.29196,-17.6318 -26.42712,-30.75995 -45.67186,-35.94272 -13.07026,-3.51993 -26.81051,-3.53222 -40.33614,-3.0041 -13.525631,0.52813 -27.110651,1.57076 -40.564242,0.08 -13.453592,-1.49078 -26.990567,-5.73626 -37.244907,-14.57198 -5.12717,-4.41787 -9.347368,-9.9461 -11.919449,-16.20628 -2.57208,-6.26017 -3.454174,-13.25856 -2.157579,-19.90117 z"
         id="path1"
         transform="matrix(0.58764409,0.49818342,-0.47213984,0.62005897,135.88767,-27.738311)"
         inkscape:original-d="m 20.135593,112.00424 c -44.04661,-18.03814 51.177965,5.03389 76.766948,7.55084 25.588979,2.51695 -14.890053,71.18668 -21.182427,108.52143 -6.292374,37.33473 83.686666,21.94044 124.377346,31.16925 40.69067,9.22882 -31.79887,-62.5956 -47.73955,-93.63798 C 136.41723,134.56541 64.182204,130.04237 20.135593,112.00424 Z"
         inkscape:path-effect="#path-effect1"
         sodipodi:nodetypes="ssssss" />
      <ellipse
         style="opacity:0.093633;fill:#00ff00;fill-opacity:0.172549;stroke:none;stroke-width:6.54714"
         id="path2"
         cx="101.83552"
         cy="70.901886"
         rx="7.1149554"
         ry="6.5064325" />
      <ellipse
         style="fill:#644612;fill-opacity:1;stroke:none;stroke-width:6.54714"
         id="ellipse2"
         cx="124.60337"
         cy="68.89991"
         rx="7.1149554"
         ry="6.5064325" />
      <path
         sodipodi:type="star"
         style="fill:#644612;fill-opacity:1;stroke:none;stroke-width:9.60555"
         id="path3"
         inkscape:flatsided="false"
         sodipodi:sides="3"
         sodipodi:cx="-341.04663"
         sodipodi:cy="-147.24153"
         sodipodi:r1="16.408501"
         sodipodi:r2="8.2042503"
         sodipodi:arg1="0.56672922"
         sodipodi:arg2="1.6139268"
         inkscape:rounded="0"
         inkscape:randomized="0"
         d="m -327.20341,-138.43221 -14.19696,-0.6127 -14.19697,-0.6127 7.6291,-11.98858 7.6291,-11.98858 6.56786,12.60128 z"
         inkscape:transform-center-x="-0.90005642"
         inkscape:transform-center-y="-2.5851834"
         transform="matrix(0.67643117,-0.12664233,0.11196741,0.66584573,363.14221,139.49408)" />
      <path
         style="fill:#644612;fill-opacity:1;stroke:none;stroke-width:6.54497"
         id="path5"
         sodipodi:type="arc"
         sodipodi:cx="97.943398"
         sodipodi:cy="98.804878"
         sodipodi:rx="23.360149"
         sodipodi:ry="23.477728"
         sodipodi:start="0.49587316"
         sodipodi:end="2.682097"
         sodipodi:open="true"
         sodipodi:arc-type="arc"
         d="M 118.4899,109.97558 A 23.360149,23.477728 0 0 1 97.518529,122.27872 23.360149,23.477728 0 0 1 77.00625,109.21716"
         transform="matrix(0.99019156,-0.13971642,0.17165409,0.98515728,0,0)" />
      <ellipse
         style="fill:#ffff00;fill-opacity:0.172549;stroke:none;stroke-width:6.54714;stroke-opacity:1"
         id="ellipse5"
         cx="101.83552"
         cy="75.702377"
         rx="7.1149554"
         ry="6.5064325" />
      <path
         id="rect5"
         style="fill:#000000;fill-opacity:1;stroke:none;stroke-width:6.54715;stroke-opacity:1"
         d="m 111.00512,45.890517 c -5.81787,-0.05743 -11.663841,1.968338 -16.166551,5.851479 -3.160934,2.725993 -5.605738,6.309246 -7.23738,10.263928 0.860756,2.141664 2.984142,3.505617 5.278352,3.194144 l 35.288609,-4.791011 c 1.93811,-0.263127 3.45914,-1.649523 4.06414,-3.458851 -0.42588,-0.547305 -0.85707,-1.090239 -1.31784,-1.60632 -4.55725,-5.104373 -10.81384,-8.549304 -17.42168,-9.300465 -0.82598,-0.0939 -1.65651,-0.144701 -2.48765,-0.152904 z" />
      <path
         style="fill:#000000;fill-opacity:1;stroke:none;stroke-width:8.45524;stroke-opacity:1"
         d="m -173.70457,169.19927 c 3.64023,-0.98821 7.57627,-0.19962 10.99702,1.38982 3.42075,1.58944 6.4247,3.93319 9.42804,6.21525 3.00333,2.28206 6.08251,4.54734 9.58635,5.9441 3.50384,1.39676 7.52894,1.85365 11.03693,0.46734 3.28715,-1.29904 5.80765,-4.08707 7.49951,-7.19036 1.69186,-3.1033 2.65321,-6.54139 3.644,-9.93421 0.99078,-3.39281 2.04278,-6.81528 3.88844,-9.82964 1.84566,-3.01436 4.59424,-5.62274 7.99517,-6.58529 2.14284,-0.60648 4.46239,-0.52804 6.58525,0.14507 2.12285,0.67311 4.046813,1.92996 5.576729,3.54827 3.059832,3.23664 4.457156,7.8249 4.340519,12.2774 -0.116636,4.4525 -1.641834,8.77912 -3.792592,12.67946 -2.150759,3.90033 -4.917486,7.42165 -7.704006,10.89637 -3.20767,3.99987 -6.48408,7.98987 -10.40542,11.29308 -3.92134,3.30321 -8.56081,5.91358 -13.62288,6.72814 -6.96038,1.12002 -13.98115,-1.20389 -21.02477,-1.50176 -5.85451,-0.24758 -11.83068,0.89978 -17.52063,-0.50059 -3.3961,-0.83582 -6.55557,-2.57359 -9.13656,-4.9338 -2.581,-2.3602 -4.5848,-5.33379 -5.88113,-8.58212 -1.68084,-4.21185 -2.15498,-9.00138 -0.73837,-13.3093 0.7083,-2.15396 1.88235,-4.16267 3.46953,-5.78196 1.58717,-1.6193 3.59064,-2.84123 5.77887,-3.43527 z"
         id="path10"
         inkscape:path-effect="#path-effect12"
         inkscape:original-d="m -173.70457,169.19927 c 2.00236,-2.50295 27.03183,23.86143 41.04834,14.01651 11.88271,-8.34618 15.68514,-27.03184 23.02712,-33.5395 7.34198,-6.50767 4.50531,33.20577 5.0059,39.54657 0.50058,6.3408 -17.18692,12.01415 -24.0283,18.02122 -6.8414,6.00708 -14.35024,-3.17039 -21.02477,-1.50176 -6.67452,1.66863 -11.68042,-0.33373 -17.52063,-0.50059 -5.84021,-0.16686 -10.01179,-9.01061 -15.01769,-13.51592 -5.0059,-4.5053 6.50767,-20.02358 8.51003,-22.52653 z"
         transform="matrix(0.75381802,0,0,0.79539917,265.85302,11.603343)"
         sodipodi:nodetypes="sssssssss" />
      <path
         style="fill:#000000;fill-opacity:1;stroke:none;stroke-width:8.45524;stroke-opacity:1"
         d="m -173.70457,169.19927 c 3.06492,-0.9893 6.412,-0.78542 9.53618,-0.003 3.12419,0.78224 6.0768,2.11768 9.03352,3.39448 2.95673,1.27679 5.96547,2.51013 9.13709,3.06987 3.17161,0.55973 6.55411,0.40316 9.44915,-1.00793 3.29346,-1.60529 5.67945,-4.70904 7.06093,-8.10246 1.38149,-3.39342 1.85419,-7.08348 2.12387,-10.73739 0.26969,-3.65391 0.35059,-7.33383 1.00086,-10.93951 0.65028,-3.60568 1.91538,-7.1878 4.27819,-9.98797 2.40894,-2.85485 5.88849,-4.74963 9.57068,-5.3779 3.68218,-0.62827 7.54216,-0.0135 10.91769,1.58617 3.37552,1.59969 6.266093,4.16122 8.393831,7.23139 2.127737,3.07016 3.50264,6.63729 4.146357,10.3168 1.287435,7.35903 -0.344674,15.00378 -3.42113,21.81173 -3.076456,6.80795 -7.538158,12.88886 -12.145858,18.76949 -3.16463,4.0389 -6.44059,8.03767 -10.37225,11.3346 -3.93165,3.29693 -8.58827,5.88336 -13.65605,6.68662 -6.96251,1.10357 -13.9817,-1.20226 -21.02477,-1.50176 -5.85399,-0.24893 -11.82721,0.88364 -17.52063,-0.50059 -3.40237,-0.82721 -6.57539,-2.54938 -9.16434,-4.90687 -2.58895,-2.35749 -4.59335,-5.34212 -5.85335,-8.60905 -1.61761,-4.19413 -1.98769,-8.94534 -0.55289,-13.20548 0.7174,-2.13007 1.87792,-4.11705 3.42901,-5.7437 1.55109,-1.62665 3.49495,-2.88693 5.63391,-3.57735 z"
         id="path14"
         inkscape:path-effect="#path-effect16"
         inkscape:original-d="m -173.70457,169.19927 c 2.00236,-2.50295 23.13943,15.29815 37.15594,5.45323 11.88271,-8.34618 7.12187,-33.25967 14.46385,-39.76733 7.34198,-6.50767 16.96098,47.99688 17.46157,54.33768 0.50058,6.3408 -17.18692,12.01415 -24.0283,18.02122 -6.8414,6.00708 -14.35024,-3.17039 -21.02477,-1.50176 -6.67452,1.66863 -11.68042,-0.33373 -17.52063,-0.50059 -5.84021,-0.16686 -10.01179,-9.01061 -15.01769,-13.51592 -5.0059,-4.5053 6.50767,-20.02358 8.51003,-22.52653 z"
         transform="matrix(-0.75381802,0,0,0.79539917,-44.016758,12.001512)"
         sodipodi:nodetypes="sssssssss" />
      <path
         style="fill:#000000;fill-opacity:1;stroke:none;stroke-width:8.45524;stroke-opacity:1"
         d="m -173.70457,169.19927 c 3.64023,-0.98821 7.57627,-0.19962 10.99702,1.38982 3.42075,1.58944 6.4247,3.93319 9.42804,6.21525 3.00333,2.28206 6.08251,4.54734 9.58635,5.9441 3.50384,1.39676 7.52894,1.85365 11.03693,0.46734 3.28715,-1.29904 5.80765,-4.08707 7.49951,-7.19036 1.69186,-3.1033 2.65321,-6.54139 3.644,-9.93421 0.99078,-3.39281 2.04278,-6.81528 3.88844,-9.82964 1.84566,-3.01436 4.59424,-5.62274 7.99517,-6.58529 2.14284,-0.60648 4.46239,-0.52804 6.58525,0.14507 2.12285,0.67311 4.046813,1.92996 5.576729,3.54827 3.059832,3.23664 4.457156,7.8249 4.340519,12.2774 -0.116636,4.4525 -1.641834,8.77912 -3.792592,12.67946 -2.150759,3.90033 -4.917486,7.42165 -7.704006,10.89637 -3.20767,3.99987 -6.48408,7.98987 -10.40542,11.29308 -3.92134,3.30321 -8.56081,5.91358 -13.62288,6.72814 -6.96038,1.12002 -13.98115,-1.20389 -21.02477,-1.50176 -5.85451,-0.24758 -11.83068,0.89978 -17.52063,-0.50059 -3.3961,-0.83582 -6.55557,-2.57359 -9.13656,-4.9338 -2.581,-2.3602 -4.5848,-5.33379 -5.88113,-8.58212 -1.68084,-4.21185 -2.15498,-9.00138 -0.73837,-13.3093 0.7083,-2.15396 1.88235,-4.16267 3.46953,-5.78196 1.58717,-1.6193 3.59064,-2.84123 5.77887,-3.43527 z"
         id="path16"
         inkscape:path-effect="#path-effect18"
         inkscape:original-d="m -173.70457,169.19927 c 2.00236,-2.50295 27.03183,23.86143 41.04834,14.01651 11.88271,-8.34618 15.68514,-27.03184 23.02712,-33.5395 7.34198,-6.50767 4.50531,33.20577 5.0059,39.54657 0.50058,6.3408 -17.18692,12.01415 -24.0283,18.02122 -6.8414,6.00708 -14.35024,-3.17039 -21.02477,-1.50176 -6.67452,1.66863 -11.68042,-0.33373 -17.52063,-0.50059 -5.84021,-0.16686 -10.01179,-9.01061 -15.01769,-13.51592 -5.0059,-4.5053 6.50767,-20.02358 8.51003,-22.52653 z"
         transform="matrix(-0.13639161,0.78227125,0.74137638,0.14391507,-62.495887,335.28511)"
         sodipodi:nodetypes="sssssssss" />
      <path
         style="fill:#000000;fill-opacity:1;stroke:none;stroke-width:8.45524;stroke-opacity:1"
         d="m -173.70457,169.19927 c 3.64023,-0.98821 7.57627,-0.19962 10.99702,1.38982 3.42075,1.58944 6.4247,3.93319 9.42804,6.21525 3.00333,2.28206 6.08251,4.54734 9.58635,5.9441 3.50384,1.39676 7.52894,1.85365 11.03693,0.46734 3.28715,-1.29904 5.80765,-4.08707 7.49951,-7.19036 1.69186,-3.1033 2.65321,-6.54139 3.644,-9.93421 0.99078,-3.39281 2.04278,-6.81528 3.88844,-9.82964 1.84566,-3.01436 4.59424,-5.62274 7.99517,-6.58529 2.14284,-0.60648 4.46239,-0.52804 6.58525,0.14507 2.12285,0.67311 4.046813,1.92996 5.576729,3.54827 3.059832,3.23664 4.457156,7.8249 4.340519,12.2774 -0.116636,4.4525 -1.641834,8.77912 -3.792592,12.67946 -2.150759,3.90033 -4.917486,7.42165 -7.704006,10.89637 -3.20767,3.99987 -6.48408,7.98987 -10.40542,11.29308 -3.92134,3.30321 -8.56081,5.91358 -13.62288,6.72814 -6.96038,1.12002 -13.98115,-1.20389 -21.02477,-1.50176 -5.85451,-0.24758 -11.83068,0.89978 -17.52063,-0.50059 -3.3961,-0.83582 -6.55557,-2.57359 -9.13656,-4.9338 -2.581,-2.3602 -4.5848,-5.33379 -5.88113,-8.58212 -1.68084,-4.21185 -2.15498,-9.00138 -0.73837,-13.3093 0.7083,-2.15396 1.88235,-4.16267 3.46953,-5.78196 1.58717,-1.6193 3.59064,-2.84123 5.77887,-3.43527 z"
         id="path18"
         inkscape:path-effect="#path-effect20"
         inkscape:original-d="m -173.70457,169.19927 c 2.00236,-2.50295 27.03183,23.86143 41.04834,14.01651 11.88271,-8.34618 15.68514,-27.03184 23.02712,-33.5395 7.34198,-6.50767 4.50531,33.20577 5.0059,39.54657 0.50058,6.3408 -17.18692,12.01415 -24.0283,18.02122 -6.8414,6.00708 -14.35024,-3.17039 -21.02477,-1.50176 -6.67452,1.66863 -11.68042,-0.33373 -17.52063,-0.50059 -5.84021,-0.16686 -10.01179,-9.01061 -15.01769,-13.51592 -5.0059,-4.5053 6.50767,-20.02358 8.51003,-22.52653 z"
         transform="matrix(0.17917813,0.77260309,0.73221364,-0.18906173,33.334266,389.23174)"
         sodipodi:nodetypes="sssssssss" />
    </g>
    <path
       style="opacity:1;fill:#000000;fill-opacity:1;stroke:none;stroke-width:6.00001;stroke-opacity:1"
       d="m -2804.1915,-1061.9695 c 47.8503,203.19597 3.5419,434.74845 5.3129,652.12267 v 0 l -0.096,-20.12447 -312.8948,1.4957 2.9631,619.88028 450.2531,-2.15233 -2.8527,-596.77783 -401.1168,1.91739 2.6445,553.22527 357.5177,-1.70903 -2.4425,-510.95221 -316.5707,1.51325 2.3188,485.08126 265.8059,-1.27063 -2.0855,-436.27068 -217.0186,1.0375 1.7755,371.430229 2.7686,-0.0132"
       id="path20"
       sodipodi:nodetypes="ccccccccccccccccccc" />
    <path
       style="opacity:1;fill:#000000;fill-opacity:1;stroke:none;stroke-width:6.00001;stroke-opacity:1"
       d="m -3291.8191,-2865.6527 -13.2512,465.3789 -201.0935,-7.9668 287.5562,-369.1333 773.2932,402.1826 -984.8786,-280.1368 235.2516,-318.8794 395.4134,1933.62 -1335.9489,-1076.3834 1694.186,-262.086 -761.4608,-599.2529 -920.6549,849.7418 -12.0703,11.5971 1324.273,1068.2576 -536.4666,-1194.5668"
       id="path21" />
  </g>
</svg>
